<svg width="102" height="52" viewBox="0 0 102 52" fill="none" xmlns="http://www.w3.org/2000/svg">
<path d="M3.168 43.5547H13.248C18.912 43.5547 22.112 41.0587 22.112 36.6107C22.112 32.3867 19.264 30.0827 13.888 30.0827H7.264V24.5787H20.608V21.1547H3.168V43.5547ZM7.264 40.3547V33.2827H13.024C16.288 33.2827 17.92 34.4027 17.92 36.7387C17.92 39.1067 16.224 40.3547 13.024 40.3547H7.264ZM27.477 26.4667L27.189 33.0587C26.997 36.6107 26.901 40.2587 24.277 40.2587C24.053 40.2587 23.797 40.2267 23.509 40.1627L23.317 43.5227C24.149 43.7467 24.885 43.8747 25.525 43.8747C29.557 43.8747 30.453 39.3307 30.741 33.2507L30.901 29.8587H37.301V43.5547H41.301V26.4667H27.477ZM54.304 43.7787C59.616 43.7787 63.424 40.1307 63.424 35.0107C63.424 29.8907 59.616 26.2747 54.304 26.2747C49.056 26.2747 45.216 29.8907 45.216 35.0107C45.216 40.1307 49.056 43.7787 54.304 43.7787ZM54.304 40.3547C51.424 40.3547 49.248 38.2747 49.248 35.0107C49.248 31.7467 51.424 29.6667 54.304 29.6667C57.216 29.6667 59.392 31.7467 59.392 35.0107C59.392 38.2747 57.216 40.3547 54.304 40.3547ZM80.4955 26.4667H67.3755V43.5547H71.3755V29.8587H80.4955V26.4667Z" fill="white"/>
<path fill-rule="evenodd" clip-rule="evenodd" d="M67 12.5546L101.309 0V12.5546H67Z" fill="#FF6600"/>
</svg>
