<svg width="219" height="44" viewBox="0 0 219 44" fill="none" xmlns="http://www.w3.org/2000/svg">
<path d="M20.196 35H25.488L16.56 22.004L25.164 9.8H20.196L12.96 20.348H8.136V9.8H3.528V35H8.136V24.38H12.816L20.196 35ZM36.4826 35.252C42.4586 35.252 46.7426 31.148 46.7426 25.388C46.7426 19.628 42.4586 15.56 36.4826 15.56C30.5786 15.56 26.2586 19.628 26.2586 25.388C26.2586 31.148 30.5786 35.252 36.4826 35.252ZM36.4826 31.4C33.2426 31.4 30.7946 29.06 30.7946 25.388C30.7946 21.716 33.2426 19.376 36.4826 19.376C39.7586 19.376 42.2066 21.716 42.2066 25.388C42.2066 29.06 39.7586 31.4 36.4826 31.4ZM51.1881 35H55.6881V27.404H65.3721V35H69.8721V15.776H65.3721V23.588H55.6881V15.776H51.1881V35ZM91.1309 15.776H73.1309V19.592H79.8989V35H84.3989V19.592H91.1309V15.776ZM101.559 15.56C98.4631 15.56 95.4751 16.352 93.4231 17.936L95.1871 21.212C96.6271 20.024 98.8591 19.304 101.019 19.304C104.223 19.304 105.807 20.852 105.807 23.48V23.768H100.839C95.0071 23.768 92.8471 26.288 92.8471 29.492C92.8471 32.84 95.6191 35.252 100.011 35.252C102.891 35.252 104.979 34.316 106.059 32.66V35H110.307V23.732C110.307 18.188 107.103 15.56 101.559 15.56ZM100.947 31.976C98.6431 31.976 97.2751 30.932 97.2751 29.312C97.2751 27.908 98.1031 26.756 101.163 26.756H105.807V28.988C105.051 30.968 103.143 31.976 100.947 31.976ZM129.664 35H134.956L127.504 25.028L134.488 15.776H129.664L123.976 23.552H120.376V15.776H115.876V35H120.376V27.296H123.868L129.664 35ZM153.111 15.776H135.111V19.592H141.879V35H146.379V19.592H153.111V15.776ZM165.736 22.112L160.876 22.076V15.776H156.376V35L165.088 35.036C170.344 35.072 173.296 32.66 173.296 28.448C173.296 24.452 170.668 22.112 165.736 22.112ZM175.78 35H180.28V15.776H175.78V35ZM164.692 31.724L160.876 31.688V25.172L164.692 25.208C167.356 25.244 168.76 26.18 168.76 28.376C168.76 30.608 167.32 31.76 164.692 31.724Z" fill="white"/>
<path fill-rule="evenodd" clip-rule="evenodd" d="M156 12.5546L190.309 0V12.5546H156Z" fill="#FF6600"/>
</svg>
